<svg width="1200" height="630" viewBox="0 0 1200 630" xmlns="http://www.w3.org/2000/svg">
  <defs>
    <filter id="shadow" x="-20%" y="-20%" width="140%" height="140%">
      <feDropShadow dx="0" dy="16" stdDeviation="26" flood-color="#0b0c16" flood-opacity="0.13"/>
    </filter>
  </defs>

  <rect width="1200" height="630" fill="#fbfbfd"/>

  <!-- Logo -->
  <g transform="translate(80,74)">
    <rect width="44" height="44" rx="11" fill="#0b0c12"/>
    <rect x="11" y="14" width="16.5" height="20" rx="3" fill="#ffffff" opacity="0.42"/>
    <rect x="16.5" y="9" width="16.5" height="20" rx="3" fill="#ffffff"/>
    <text x="60" y="31" font-family="'Geist','Segoe UI',Arial,sans-serif" font-size="28" font-weight="700" fill="#0b0c12">Pagewright</text>
  </g>

  <!-- Headline -->
  <text x="80" y="278" font-family="'Geist','Segoe UI',Arial,sans-serif" font-size="60" font-weight="700" fill="#0b0c12" letter-spacing="-1.8">Landing pages with</text>
  <text x="80" y="346" font-family="'Geist','Segoe UI',Arial,sans-serif" font-size="60" font-weight="700" fill="#0b0c12" letter-spacing="-1.8">the copy already</text>
  <text x="80" y="414" font-family="'Geist','Segoe UI',Arial,sans-serif" font-size="60" font-weight="700" fill="#0b0c12" letter-spacing="-1.8">written.</text>

  <!-- Subhead -->
  <text x="82" y="468" font-family="'Geist','Segoe UI',Arial,sans-serif" font-size="25" font-weight="400" fill="#545a6a">Three premium templates. HTML + Tailwind, no build step.</text>

  <!-- Pill -->
  <g transform="translate(82,500)">
    <rect width="318" height="46" rx="23" fill="#0b0c12"/>
    <text x="26" y="30" font-family="'Geist','Segoe UI',Arial,sans-serif" font-size="19" font-weight="600" fill="#ffffff">Aurora &#183; Ledger &#183; Bloom</text>
  </g>

  <!-- Template hint cards (the only color on the page) -->
  <g transform="translate(686,92)" filter="url(#shadow)">
    <rect width="330" height="232" rx="18" fill="#ffffff" stroke="#e6e7ee"/>
    <rect width="330" height="38" rx="18" fill="#f4f5f8"/>
    <rect y="24" width="330" height="14" fill="#f4f5f8"/>
    <circle cx="24" cy="19" r="4" fill="#cfd3dc"/><circle cx="40" cy="19" r="4" fill="#d8dbe3"/><circle cx="56" cy="19" r="4" fill="#e1e4ea"/>
    <rect x="24" y="62" width="100" height="20" rx="6" fill="#e11d6b"/>
    <rect x="24" y="104" width="282" height="12" rx="6" fill="#e9ebf1"/>
    <rect x="24" y="128" width="210" height="12" rx="6" fill="#eef0f5"/>
    <rect x="24" y="166" width="120" height="40" rx="20" fill="#fde7f0"/>
  </g>

  <g transform="translate(742,150)" filter="url(#shadow)">
    <rect width="360" height="250" rx="18" fill="#ffffff" stroke="#e6e7ee"/>
    <rect width="360" height="40" rx="18" fill="#f4f5f8"/>
    <rect y="26" width="360" height="14" fill="#f4f5f8"/>
    <circle cx="24" cy="20" r="4" fill="#cfd3dc"/><circle cx="40" cy="20" r="4" fill="#d8dbe3"/><circle cx="56" cy="20" r="4" fill="#e1e4ea"/>
    <rect x="24" y="66" width="120" height="22" rx="6" fill="#3056f5"/>
    <rect x="24" y="104" width="300" height="12" rx="6" fill="#e9ebf1"/>
    <rect x="24" y="128" width="250" height="12" rx="6" fill="#eef0f5"/>
    <rect x="24" y="168" width="150" height="40" rx="10" fill="#eef1ff"/>
    <rect x="186" y="168" width="150" height="40" rx="10" fill="#f4f5f8"/>
  </g>

  <g transform="translate(812,266)" filter="url(#shadow)">
    <rect width="330" height="232" rx="18" fill="#ffffff" stroke="#e6e7ee"/>
    <rect width="330" height="38" rx="18" fill="#f4f5f8"/>
    <rect y="24" width="330" height="14" fill="#f4f5f8"/>
    <circle cx="24" cy="19" r="4" fill="#cfd3dc"/><circle cx="40" cy="19" r="4" fill="#d8dbe3"/><circle cx="56" cy="19" r="4" fill="#e1e4ea"/>
    <rect x="24" y="62" width="110" height="20" rx="6" fill="#047857"/>
    <text x="24" y="120" font-family="'Geist Mono',monospace" font-size="13" fill="#8b909f">meter.record({ qty })</text>
    <rect x="24" y="138" width="282" height="11" rx="5" fill="#e9ebf1"/>
    <rect x="24" y="160" width="220" height="11" rx="5" fill="#eef0f5"/>
    <rect x="24" y="188" width="130" height="34" rx="9" fill="#e6f5ef"/>
  </g>
</svg>
